<svg id="SvgjsSvg1033" xmlns="http://www.w3.org/2000/svg" version="1.1" xmlns:xlink="http://www.w3.org/1999/xlink" xmlns:svgjs="http://svgjs.com/svgjs" width="46" height="46" viewBox="0 0 46 46"><title>flag</title><desc>Created with Avocode.</desc><defs id="SvgjsDefs1034"></defs><path id="SvgjsPath1035" d="M820.194 6696.8L809.304 6685.91L806.3349999999999 6682.94L800.4319999999999 6688.849999999999L804.8939999999999 6684.389999999999L800.4139999999999 6688.869999999999C800.0659999999999 6689.209999999999 799.6649999999998 6689.469999999999 799.2449999999999 6689.669999999999L798.4299999999998 6688.859999999999C796.7899999999998 6687.219999999998 794.1309999999999 6687.219999999998 792.4899999999998 6688.859999999999L786.3809999999997 6694.969999999998L785.2519999999997 6696.029999999999L784.3949999999998 6695.169999999999C783.7119999999998 6694.489999999999 782.8159999999998 6694.139999999999 781.9199999999997 6694.139999999999C781.0249999999997 6694.139999999999 780.1279999999997 6694.49 779.4449999999997 6695.169999999999C778.0779999999997 6696.539999999999 778.0779999999997 6698.749999999999 779.4449999999997 6700.119999999999L798.3379999999997 6719.009999999999L806.0409999999997 6726.709999999999C806.7239999999997 6727.399999999999 807.6199999999997 6727.739999999999 808.5159999999997 6727.739999999999C809.4109999999997 6727.739999999999 810.3079999999998 6727.399999999999 810.9909999999998 6726.709999999999C812.3579999999997 6725.349999999999 812.3579999999997 6723.129999999999 810.9909999999998 6721.759999999999L802.0179999999998 6712.789999999999L803.0159999999998 6711.799999999999L807.7719999999998 6707.23L809.3199999999998 6705.69C809.6679999999998 6705.339999999999 810.0679999999999 6705.08 810.4879999999998 6704.879999999999L811.3029999999999 6705.69C812.9439999999998 6707.33 815.6029999999998 6707.33 817.2429999999999 6705.69L817.262 6705.669999999999L823.1629999999999 6699.7699999999995ZM809.216 6724.24C809.216 6724.37 809.1800000000001 6724.5599999999995 809.01 6724.73C808.841 6724.9 808.649 6724.94 808.516 6724.94C808.384 6724.94 808.1909999999999 6724.9 808.021 6724.73L800.317 6717.03H800.318L781.425 6698.139999999999C781.256 6697.969999999999 781.2199999999999 6697.78 781.2199999999999 6697.639999999999C781.2199999999999 6697.509999999999 781.2559999999999 6697.32 781.4259999999999 6697.15C781.5949999999999 6696.98 781.7869999999999 6696.94 781.92 6696.94C782.0519999999999 6696.94 782.245 6696.98 782.415 6697.15L799.207 6713.94L809.011 6723.74C809.18 6723.91 809.216 6724.11 809.216 6724.24ZM807.34 6703.71L805.792 6705.25L801.0350000000001 6709.81L800.046 6710.81L799.056 6709.81L788.166 6698.93L787.176 6697.9400000000005L788.166 6696.950000000001L794.471 6690.840000000001C795.008 6690.300000000001 795.876 6690.290000000001 796.425 6690.820000000001L800.414 6694.8L801.4739999999999 6695.860000000001L808.4259999999999 6702.820000000001C808.0419999999999 6703.070000000001 807.6779999999999 6703.370000000001 807.3399999999999 6703.710000000001ZM815.282 6703.7L815.263 6703.71C814.726 6704.25 813.8580000000001 6704.26 813.3090000000001 6703.74L809.32 6699.75L808.2600000000001 6698.69L801.3070000000001 6691.73C801.6797900000001 6691.4873 802.0337400000001 6691.197469999999 802.3642600000002 6690.869659999999L802.4130000000001 6690.829999999999L806.3350000000002 6686.899999999999L807.3250000000002 6687.8899999999985L818.2140000000002 6698.779999999999L819.2040000000002 6699.769999999999ZM802.36426 6690.86966L801.3069999999999 6691.7300000000005L802.3939999999999 6690.84C802.3841099999999 6690.849920000001 802.3741899999999 6690.85981 802.36426 6690.86966Z " fill="#000000" fill-opacity="1" transform="matrix(1,0,0,1,-778,-6682)"></path><path id="SvgjsPath1036" d="M820.194 6696.8L809.304 6685.91L806.3349999999999 6682.94L800.4319999999999 6688.849999999999L804.8939999999999 6684.389999999999L800.4139999999999 6688.869999999999C800.0659999999999 6689.209999999999 799.6649999999998 6689.469999999999 799.2449999999999 6689.669999999999L798.4299999999998 6688.859999999999C796.7899999999998 6687.219999999998 794.1309999999999 6687.219999999998 792.4899999999998 6688.859999999999L786.3809999999997 6694.969999999998L785.2519999999997 6696.029999999999L784.3949999999998 6695.169999999999C783.7119999999998 6694.489999999999 782.8159999999998 6694.139999999999 781.9199999999997 6694.139999999999C781.0249999999997 6694.139999999999 780.1279999999997 6694.49 779.4449999999997 6695.169999999999C778.0779999999997 6696.539999999999 778.0779999999997 6698.749999999999 779.4449999999997 6700.119999999999L798.3379999999997 6719.009999999999L806.0409999999997 6726.709999999999C806.7239999999997 6727.399999999999 807.6199999999997 6727.739999999999 808.5159999999997 6727.739999999999C809.4109999999997 6727.739999999999 810.3079999999998 6727.399999999999 810.9909999999998 6726.709999999999C812.3579999999997 6725.349999999999 812.3579999999997 6723.129999999999 810.9909999999998 6721.759999999999L802.0179999999998 6712.789999999999L803.0159999999998 6711.799999999999L807.7719999999998 6707.23L809.3199999999998 6705.69C809.6679999999998 6705.339999999999 810.0679999999999 6705.08 810.4879999999998 6704.879999999999L811.3029999999999 6705.69C812.9439999999998 6707.33 815.6029999999998 6707.33 817.2429999999999 6705.69L817.262 6705.669999999999L823.1629999999999 6699.7699999999995ZM809.216 6724.24C809.216 6724.37 809.1800000000001 6724.5599999999995 809.01 6724.73C808.841 6724.9 808.649 6724.94 808.516 6724.94C808.384 6724.94 808.1909999999999 6724.9 808.021 6724.73L800.317 6717.03H800.318L781.425 6698.139999999999C781.256 6697.969999999999 781.2199999999999 6697.78 781.2199999999999 6697.639999999999C781.2199999999999 6697.509999999999 781.2559999999999 6697.32 781.4259999999999 6697.15C781.5949999999999 6696.98 781.7869999999999 6696.94 781.92 6696.94C782.0519999999999 6696.94 782.245 6696.98 782.415 6697.15L799.207 6713.94L809.011 6723.74C809.18 6723.91 809.216 6724.11 809.216 6724.24ZM807.34 6703.71L805.792 6705.25L801.0350000000001 6709.81L800.046 6710.81L799.056 6709.81L788.166 6698.93L787.176 6697.9400000000005L788.166 6696.950000000001L794.471 6690.840000000001C795.008 6690.300000000001 795.876 6690.290000000001 796.425 6690.820000000001L800.414 6694.8L801.4739999999999 6695.860000000001L808.4259999999999 6702.820000000001C808.0419999999999 6703.070000000001 807.6779999999999 6703.370000000001 807.3399999999999 6703.710000000001ZM815.282 6703.7L815.263 6703.71C814.726 6704.25 813.8580000000001 6704.26 813.3090000000001 6703.74L809.32 6699.75L808.2600000000001 6698.69L801.3070000000001 6691.73C801.6797900000001 6691.4873 802.0337400000001 6691.197469999999 802.3642600000002 6690.869659999999L802.4130000000001 6690.829999999999L806.3350000000002 6686.899999999999L807.3250000000002 6687.8899999999985L818.2140000000002 6698.779999999999L819.2040000000002 6699.769999999999ZM802.36426 6690.86966L801.3069999999999 6691.7300000000005L802.3939999999999 6690.84C802.3841099999999 6690.849920000001 802.3741899999999 6690.85981 802.36426 6690.86966Z " fill="#ffffff" fill-opacity="1" transform="matrix(1,0,0,1,-778,-6682)"></path></svg>