<svg id="SvgjsSvg1013" xmlns="http://www.w3.org/2000/svg" version="1.1" xmlns:xlink="http://www.w3.org/1999/xlink" xmlns:svgjs="http://svgjs.com/svgjs" width="46" height="41" viewBox="0 0 46 41"><title>like</title><desc>Created with Avocode.</desc><defs id="SvgjsDefs1014"></defs><path id="SvgjsPath1015" d="M823.249 1475.5C823.249 1473.19 821.365 1471.3 819.049 1471.3H808.063C808.275 1469.6599999999999 808.551 1467 808.551 1464.3C808.551 1459.01 805.6460000000001 1456.6 802.9490000000001 1456.6C799.4490000000001 1456.6 799.4490000000001 1460.31 799.4490000000001 1465C799.4490000000001 1468.38 794.1880000000001 1473.59 791.4670000000001 1475.91C790.916 1475.65 790.3020000000001 1475.5 789.6510000000001 1475.5H782.6510000000001C780.331 1475.5 778.451 1477.38 778.451 1479.7L779.851 1492.3C780.118 1494.5 781.731 1496.5 784.051 1496.5H789.6510000000001C791.46 1496.5 792.9970000000001 1495.35 793.5870000000001 1493.75L795.8560000000001 1494.94C796.0550000000001 1495.04 796.2790000000001 1495.1000000000001 796.5050000000001 1495.1000000000001H815.1970000000001C817.3200000000002 1495.1000000000001 819.0490000000001 1493.3700000000001 819.0490000000001 1491.2500000000002C819.0490000000001 1490.6500000000003 818.9090000000001 1490.0900000000001 818.6670000000001 1489.5900000000001C819.7360000000001 1488.9 820.4490000000002 1487.71 820.4490000000002 1486.3500000000001C820.4490000000002 1485.71 820.2890000000002 1485.1000000000001 820.0110000000002 1484.5700000000002C821.1190000000001 1483.8200000000002 821.8490000000002 1482.5400000000002 821.8490000000002 1481.1000000000001C821.8490000000002 1480.3500000000001 821.6490000000001 1479.65 821.3030000000001 1479.0400000000002C822.4710000000001 1478.2900000000002 823.2490000000001 1476.9900000000002 823.2490000000001 1475.5000000000002ZM789.651 1493.7H784.0509999999999C783.265 1493.7 782.732 1492.8 782.6339999999999 1491.99L781.2549999999999 1479.58C781.3139999999999 1478.87 781.9169999999999 1478.3 782.6509999999998 1478.3H789.6509999999998C790.4219999999998 1478.3 791.0509999999998 1478.93 791.0509999999998 1479.7V1491.3300000000002C791.0249999999999 1491.4900000000002 791.0249999999999 1491.64 791.0509999999998 1491.7900000000002V1492.3000000000002C791.0509999999998 1493.0700000000002 790.4219999999998 1493.7000000000003 789.6509999999998 1493.7000000000003ZM815.197 1492.3H796.85L793.851 1490.73V1479.7C793.851 1479.06 793.704 1478.45 793.447 1477.91C795.919 1475.77 802.249 1469.8400000000001 802.249 1465C802.249 1462.12 802.249 1459.4 802.9490000000001 1459.4C804.34 1459.4 805.7510000000001 1461.0900000000001 805.7510000000001 1464.3000000000002C805.7510000000001 1468.3300000000002 805.075 1472.4300000000003 805.0680000000001 1472.4700000000003C804.9990000000001 1472.8800000000003 805.1140000000001 1473.2900000000002 805.3790000000001 1473.6100000000004C805.6460000000002 1473.9200000000003 806.0370000000001 1474.1000000000004 806.4490000000002 1474.1000000000004H819.0490000000002C819.8200000000002 1474.1000000000004 820.4490000000002 1474.7300000000005 820.4490000000002 1475.5000000000005C820.4490000000002 1476.2800000000004 819.8200000000002 1476.9000000000005 819.0490000000002 1476.9000000000005H817.4930000000002C816.7190000000002 1476.9000000000005 816.0930000000002 1477.5300000000007 816.0930000000002 1478.3000000000006C816.0930000000002 1479.0800000000006 816.7190000000002 1479.7000000000007 817.4930000000002 1479.7000000000007H817.6420000000002C817.6450000000002 1479.7000000000007 817.6460000000002 1479.7000000000007 817.6490000000001 1479.7000000000007C818.4200000000001 1479.7000000000007 819.0490000000001 1480.3300000000008 819.0490000000001 1481.1000000000008C819.0490000000001 1481.8800000000008 818.4200000000001 1482.500000000001 817.6490000000001 1482.500000000001H816.7050000000002C816.6700000000002 1482.500000000001 816.6340000000001 1482.500000000001 816.5970000000002 1482.500000000001C816.5790000000002 1482.500000000001 816.5620000000002 1482.500000000001 816.5440000000002 1482.500000000001H816.0940000000002C815.3200000000002 1482.500000000001 814.6940000000002 1483.130000000001 814.6940000000002 1483.900000000001C814.6940000000002 1484.680000000001 815.3200000000002 1485.300000000001 816.0940000000002 1485.300000000001H816.6520000000002C817.2060000000001 1485.330000000001 817.6490000000001 1485.790000000001 817.6490000000001 1486.350000000001C817.6490000000001 1486.930000000001 817.1770000000001 1487.400000000001 816.5970000000001 1487.400000000001H815.238C815.234 1487.400000000001 815.23 1487.400000000001 815.225 1487.400000000001C815.216 1487.400000000001 815.207 1487.400000000001 815.197 1487.400000000001C814.425 1487.400000000001 813.797 1488.020000000001 813.797 1488.800000000001C813.797 1489.570000000001 814.4250000000001 1490.2000000000012 815.197 1490.2000000000012C815.777 1490.2000000000012 816.249 1490.6700000000012 816.249 1491.2500000000011C816.249 1491.830000000001 815.777 1492.300000000001 815.197 1492.300000000001Z " fill="#000000" fill-opacity="1" transform="matrix(1,0,0,1,-778,-1456)"></path><path id="SvgjsPath1016" d="M823.249 1475.5C823.249 1473.19 821.365 1471.3 819.049 1471.3H808.063C808.275 1469.6599999999999 808.551 1467 808.551 1464.3C808.551 1459.01 805.6460000000001 1456.6 802.9490000000001 1456.6C799.4490000000001 1456.6 799.4490000000001 1460.31 799.4490000000001 1465C799.4490000000001 1468.38 794.1880000000001 1473.59 791.4670000000001 1475.91C790.916 1475.65 790.3020000000001 1475.5 789.6510000000001 1475.5H782.6510000000001C780.331 1475.5 778.451 1477.38 778.451 1479.7L779.851 1492.3C780.118 1494.5 781.731 1496.5 784.051 1496.5H789.6510000000001C791.46 1496.5 792.9970000000001 1495.35 793.5870000000001 1493.75L795.8560000000001 1494.94C796.0550000000001 1495.04 796.2790000000001 1495.1000000000001 796.5050000000001 1495.1000000000001H815.1970000000001C817.3200000000002 1495.1000000000001 819.0490000000001 1493.3700000000001 819.0490000000001 1491.2500000000002C819.0490000000001 1490.6500000000003 818.9090000000001 1490.0900000000001 818.6670000000001 1489.5900000000001C819.7360000000001 1488.9 820.4490000000002 1487.71 820.4490000000002 1486.3500000000001C820.4490000000002 1485.71 820.2890000000002 1485.1000000000001 820.0110000000002 1484.5700000000002C821.1190000000001 1483.8200000000002 821.8490000000002 1482.5400000000002 821.8490000000002 1481.1000000000001C821.8490000000002 1480.3500000000001 821.6490000000001 1479.65 821.3030000000001 1479.0400000000002C822.4710000000001 1478.2900000000002 823.2490000000001 1476.9900000000002 823.2490000000001 1475.5000000000002ZM789.651 1493.7H784.0509999999999C783.265 1493.7 782.732 1492.8 782.6339999999999 1491.99L781.2549999999999 1479.58C781.3139999999999 1478.87 781.9169999999999 1478.3 782.6509999999998 1478.3H789.6509999999998C790.4219999999998 1478.3 791.0509999999998 1478.93 791.0509999999998 1479.7V1491.3300000000002C791.0249999999999 1491.4900000000002 791.0249999999999 1491.64 791.0509999999998 1491.7900000000002V1492.3000000000002C791.0509999999998 1493.0700000000002 790.4219999999998 1493.7000000000003 789.6509999999998 1493.7000000000003ZM815.197 1492.3H796.85L793.851 1490.73V1479.7C793.851 1479.06 793.704 1478.45 793.447 1477.91C795.919 1475.77 802.249 1469.8400000000001 802.249 1465C802.249 1462.12 802.249 1459.4 802.9490000000001 1459.4C804.34 1459.4 805.7510000000001 1461.0900000000001 805.7510000000001 1464.3000000000002C805.7510000000001 1468.3300000000002 805.075 1472.4300000000003 805.0680000000001 1472.4700000000003C804.9990000000001 1472.8800000000003 805.1140000000001 1473.2900000000002 805.3790000000001 1473.6100000000004C805.6460000000002 1473.9200000000003 806.0370000000001 1474.1000000000004 806.4490000000002 1474.1000000000004H819.0490000000002C819.8200000000002 1474.1000000000004 820.4490000000002 1474.7300000000005 820.4490000000002 1475.5000000000005C820.4490000000002 1476.2800000000004 819.8200000000002 1476.9000000000005 819.0490000000002 1476.9000000000005H817.4930000000002C816.7190000000002 1476.9000000000005 816.0930000000002 1477.5300000000007 816.0930000000002 1478.3000000000006C816.0930000000002 1479.0800000000006 816.7190000000002 1479.7000000000007 817.4930000000002 1479.7000000000007H817.6420000000002C817.6450000000002 1479.7000000000007 817.6460000000002 1479.7000000000007 817.6490000000001 1479.7000000000007C818.4200000000001 1479.7000000000007 819.0490000000001 1480.3300000000008 819.0490000000001 1481.1000000000008C819.0490000000001 1481.8800000000008 818.4200000000001 1482.500000000001 817.6490000000001 1482.500000000001H816.7050000000002C816.6700000000002 1482.500000000001 816.6340000000001 1482.500000000001 816.5970000000002 1482.500000000001C816.5790000000002 1482.500000000001 816.5620000000002 1482.500000000001 816.5440000000002 1482.500000000001H816.0940000000002C815.3200000000002 1482.500000000001 814.6940000000002 1483.130000000001 814.6940000000002 1483.900000000001C814.6940000000002 1484.680000000001 815.3200000000002 1485.300000000001 816.0940000000002 1485.300000000001H816.6520000000002C817.2060000000001 1485.330000000001 817.6490000000001 1485.790000000001 817.6490000000001 1486.350000000001C817.6490000000001 1486.930000000001 817.1770000000001 1487.400000000001 816.5970000000001 1487.400000000001H815.238C815.234 1487.400000000001 815.23 1487.400000000001 815.225 1487.400000000001C815.216 1487.400000000001 815.207 1487.400000000001 815.197 1487.400000000001C814.425 1487.400000000001 813.797 1488.020000000001 813.797 1488.800000000001C813.797 1489.570000000001 814.4250000000001 1490.2000000000012 815.197 1490.2000000000012C815.777 1490.2000000000012 816.249 1490.6700000000012 816.249 1491.2500000000011C816.249 1491.830000000001 815.777 1492.300000000001 815.197 1492.300000000001Z " fill="#ffffff" fill-opacity="1" transform="matrix(1,0,0,1,-778,-1456)"></path></svg>