<svg id="SvgjsSvg1025" xmlns="http://www.w3.org/2000/svg" version="1.1" xmlns:xlink="http://www.w3.org/1999/xlink" xmlns:svgjs="http://svgjs.com/svgjs" width="43" height="44" viewBox="0 0 43 44"><title>message</title><desc>Created with Avocode.</desc><defs id="SvgjsDefs1026"></defs><path id="SvgjsPath1027" d="M818.29 3914.8H782.7099999999999C780.7439999999999 3914.8 779.15 3916.4 779.15 3918.36V3943.44C779.15 3945.4 780.744 3947 782.7099999999999 3947H786.9569999999999L797.0459999999999 3957.09C797.314 3957.36 797.6719999999999 3957.5 798.036 3957.5C798.217 3957.5 798.399 3957.46 798.5719999999999 3957.39C799.0949999999999 3957.17 799.4359999999999 3956.66 799.4359999999999 3956.1V3947H818.29C820.256 3947 821.8499999999999 3945.4 821.8499999999999 3943.44V3918.36C821.8499999999999 3916.4 820.2559999999999 3914.8 818.29 3914.8ZM819.05 3943.44C819.05 3943.86 818.709 3944.2000000000003 818.29 3944.2000000000003H799.4359999999999C797.8899999999999 3944.2000000000003 796.636 3945.4500000000003 796.636 3947.0000000000005V3952.7200000000003L788.9359999999999 3945.0200000000004C788.411 3944.4900000000002 787.699 3944.2000000000003 786.9569999999999 3944.2000000000003H782.7099999999999C782.2909999999999 3944.2000000000003 781.9499999999999 3943.86 781.9499999999999 3943.44V3918.36C781.9499999999999 3917.94 782.2909999999999 3917.6 782.7099999999999 3917.6H818.29C818.709 3917.6 819.05 3917.94 819.05 3918.36ZM810.647 3922.5H791.0500000000001C790.277 3922.5 789.6500000000001 3923.13 789.6500000000001 3923.9C789.6500000000001 3924.6800000000003 790.277 3925.3 791.0500000000001 3925.3H810.647C811.4200000000001 3925.3 812.047 3924.6800000000003 812.047 3923.9C812.047 3923.13 811.4200000000001 3922.5 810.647 3922.5ZM810.647 3929.5H791.0500000000001C790.277 3929.5 789.6500000000001 3930.13 789.6500000000001 3930.9C789.6500000000001 3931.6800000000003 790.277 3932.3 791.0500000000001 3932.3H810.647C811.4200000000001 3932.3 812.047 3931.6800000000003 812.047 3930.9C812.047 3930.13 811.4200000000001 3929.5 810.647 3929.5ZM802.247 3936.5H791.05C790.2769999999999 3936.5 789.65 3937.13 789.65 3937.9C789.65 3938.6800000000003 790.2769999999999 3939.3 791.05 3939.3H802.247C803.02 3939.3 803.6469999999999 3938.6800000000003 803.6469999999999 3937.9C803.6469999999999 3937.13 803.02 3936.5 802.247 3936.5Z " fill="#000000" fill-opacity="1" transform="matrix(1,0,0,1,-779,-3914)"></path><path id="SvgjsPath1028" d="M818.29 3914.8H782.7099999999999C780.7439999999999 3914.8 779.15 3916.4 779.15 3918.36V3943.44C779.15 3945.4 780.744 3947 782.7099999999999 3947H786.9569999999999L797.0459999999999 3957.09C797.314 3957.36 797.6719999999999 3957.5 798.036 3957.5C798.217 3957.5 798.399 3957.46 798.5719999999999 3957.39C799.0949999999999 3957.17 799.4359999999999 3956.66 799.4359999999999 3956.1V3947H818.29C820.256 3947 821.8499999999999 3945.4 821.8499999999999 3943.44V3918.36C821.8499999999999 3916.4 820.2559999999999 3914.8 818.29 3914.8ZM819.05 3943.44C819.05 3943.86 818.709 3944.2000000000003 818.29 3944.2000000000003H799.4359999999999C797.8899999999999 3944.2000000000003 796.636 3945.4500000000003 796.636 3947.0000000000005V3952.7200000000003L788.9359999999999 3945.0200000000004C788.411 3944.4900000000002 787.699 3944.2000000000003 786.9569999999999 3944.2000000000003H782.7099999999999C782.2909999999999 3944.2000000000003 781.9499999999999 3943.86 781.9499999999999 3943.44V3918.36C781.9499999999999 3917.94 782.2909999999999 3917.6 782.7099999999999 3917.6H818.29C818.709 3917.6 819.05 3917.94 819.05 3918.36ZM810.647 3922.5H791.0500000000001C790.277 3922.5 789.6500000000001 3923.13 789.6500000000001 3923.9C789.6500000000001 3924.6800000000003 790.277 3925.3 791.0500000000001 3925.3H810.647C811.4200000000001 3925.3 812.047 3924.6800000000003 812.047 3923.9C812.047 3923.13 811.4200000000001 3922.5 810.647 3922.5ZM810.647 3929.5H791.0500000000001C790.277 3929.5 789.6500000000001 3930.13 789.6500000000001 3930.9C789.6500000000001 3931.6800000000003 790.277 3932.3 791.0500000000001 3932.3H810.647C811.4200000000001 3932.3 812.047 3931.6800000000003 812.047 3930.9C812.047 3930.13 811.4200000000001 3929.5 810.647 3929.5ZM802.247 3936.5H791.05C790.2769999999999 3936.5 789.65 3937.13 789.65 3937.9C789.65 3938.6800000000003 790.2769999999999 3939.3 791.05 3939.3H802.247C803.02 3939.3 803.6469999999999 3938.6800000000003 803.6469999999999 3937.9C803.6469999999999 3937.13 803.02 3936.5 802.247 3936.5Z " fill="#ffffff" fill-opacity="1" transform="matrix(1,0,0,1,-779,-3914)"></path></svg>