<svg id="SvgjsSvg1021" xmlns="http://www.w3.org/2000/svg" version="1.1" xmlns:xlink="http://www.w3.org/1999/xlink" xmlns:svgjs="http://svgjs.com/svgjs" width="46" height="34" viewBox="0 0 46 34"><title>mortarboard</title><desc>Created with Avocode.</desc><defs id="SvgjsDefs1022"></defs><path id="SvgjsPath1023" d="M822.332 4803.97L801.332 4796.27C801.02 4796.150000000001 800.68 4796.150000000001 800.3679999999999 4796.27L779.3679999999999 4803.97C778.8159999999999 4804.18 778.4499999999999 4804.7 778.4499999999999 4805.29C778.4499999999999 4805.87 778.8159999999999 4806.4 779.3679999999999 4806.6L780.55 4807.04V4824.39C780.1329999999999 4824.63 779.8499999999999 4825.08 779.8499999999999 4825.59V4828.400000000001C779.8499999999999 4829.170000000001 780.4769999999999 4829.8 781.2499999999999 4829.8C782.0229999999999 4829.8 782.6499999999999 4829.17 782.6499999999999 4828.400000000001V4825.59C782.6499999999999 4825.08 782.3669999999998 4824.63 781.9499999999998 4824.39V4807.55L786.1469999999998 4809.09V4819.99C786.1469999999998 4825.41 790.5349999999999 4829.8 795.9469999999998 4829.8H805.7469999999997C811.1599999999997 4829.8 815.5469999999997 4825.41 815.5469999999997 4819.99V4809.09L822.3319999999997 4806.6C822.8839999999997 4806.400000000001 823.2499999999997 4805.870000000001 823.2499999999997 4805.29C823.2499999999997 4804.7 822.8839999999997 4804.18 822.3319999999997 4803.97ZM812.747 4819.99C812.747 4823.849999999999 809.607 4827 805.747 4827H795.947C792.088 4827 788.947 4823.85 788.947 4819.99V4810.12L800.368 4814.3099999999995C800.524 4814.36 800.687 4814.389999999999 800.85 4814.389999999999C801.013 4814.389999999999 801.176 4814.36 801.332 4814.3099999999995L812.747 4810.12ZM800.85 4811.5L783.917 4805.29L800.85 4799.07L817.783 4805.29Z " fill="#000000" fill-opacity="1" transform="matrix(1,0,0,1,-778,-4796)"></path><path id="SvgjsPath1024" d="M822.332 4803.97L801.332 4796.27C801.02 4796.150000000001 800.68 4796.150000000001 800.3679999999999 4796.27L779.3679999999999 4803.97C778.8159999999999 4804.18 778.4499999999999 4804.7 778.4499999999999 4805.29C778.4499999999999 4805.87 778.8159999999999 4806.4 779.3679999999999 4806.6L780.55 4807.04V4824.39C780.1329999999999 4824.63 779.8499999999999 4825.08 779.8499999999999 4825.59V4828.400000000001C779.8499999999999 4829.170000000001 780.4769999999999 4829.8 781.2499999999999 4829.8C782.0229999999999 4829.8 782.6499999999999 4829.17 782.6499999999999 4828.400000000001V4825.59C782.6499999999999 4825.08 782.3669999999998 4824.63 781.9499999999998 4824.39V4807.55L786.1469999999998 4809.09V4819.99C786.1469999999998 4825.41 790.5349999999999 4829.8 795.9469999999998 4829.8H805.7469999999997C811.1599999999997 4829.8 815.5469999999997 4825.41 815.5469999999997 4819.99V4809.09L822.3319999999997 4806.6C822.8839999999997 4806.400000000001 823.2499999999997 4805.870000000001 823.2499999999997 4805.29C823.2499999999997 4804.7 822.8839999999997 4804.18 822.3319999999997 4803.97ZM812.747 4819.99C812.747 4823.849999999999 809.607 4827 805.747 4827H795.947C792.088 4827 788.947 4823.85 788.947 4819.99V4810.12L800.368 4814.3099999999995C800.524 4814.36 800.687 4814.389999999999 800.85 4814.389999999999C801.013 4814.389999999999 801.176 4814.36 801.332 4814.3099999999995L812.747 4810.12ZM800.85 4811.5L783.917 4805.29L800.85 4799.07L817.783 4805.29Z " fill="#ffffff" fill-opacity="1" transform="matrix(1,0,0,1,-778,-4796)"></path></svg>