<svg id="SvgjsSvg1037" xmlns="http://www.w3.org/2000/svg" version="1.1" xmlns:xlink="http://www.w3.org/1999/xlink" xmlns:svgjs="http://svgjs.com/svgjs" width="35" height="49" viewBox="0 0 35 49"><title>pinmap</title><desc>Created with Avocode.</desc><defs id="SvgjsDefs1038"></defs><path id="SvgjsPath1039" d="M801.5 7237.8C791.902 7237.8 784.12 7245.43 784.12 7254.84C784.12 7258.67 785.544 7262.16 787.591 7265.05L800.19 7284.45C800.378 7284.7699999999995 800.6850000000001 7285.0199999999995 801.0630000000001 7285.13C801.2080000000001 7285.18 801.3550000000001 7285.2 801.5000000000001 7285.2C801.5890000000002 7285.2 801.6760000000002 7285.19 801.7620000000001 7285.17C801.822 7285.16 801.8820000000001 7285.15 801.942 7285.13C802.307 7285.02 802.607 7284.79 802.795 7284.4800000000005L815.65796 7264.71467C815.65727 7264.71727 815.657 7264.72 815.657 7264.72C815.6576200000001 7264.72 815.6590100000001 7264.71615 815.6604600000001 7264.710840000001L815.6610000000001 7264.710000000001C815.6608900000001 7264.710000000001 815.66078 7264.710010000001 815.6606700000001 7264.710040000001C815.6614800000001 7264.706980000001 815.6623000000001 7264.703490000001 815.6630000000001 7264.700000000001C815.6640000000001 7264.700000000001 815.6640000000001 7264.700000000001 815.6650000000001 7264.700000000001C817.6870000000001 7261.920000000001 818.8800000000001 7258.52 818.8800000000001 7254.840000000001C818.8800000000001 7245.430000000001 811.0990000000002 7237.800000000001 801.5000000000001 7237.800000000001ZM814.007 7261.75H814.0039999999999L813.1119999999999 7263.11L801.5029999999998 7280.96L790.1419999999998 7263.46L790.0759999999998 7263.36C788.7379999999998 7261.469999999999 787.1429999999998 7258.46 787.1429999999998 7254.839999999999C787.1429999999998 7247.079999999999 793.5829999999999 7240.7699999999995 801.4999999999998 7240.7699999999995C809.4169999999998 7240.7699999999995 815.8579999999997 7247.08 815.8579999999997 7254.839999999999C815.8579999999997 7257.279999999999 815.2219999999998 7259.639999999999 814.0069999999997 7261.749999999999ZM801.504 7247.46C797.338 7247.46 793.948 7250.78 793.948 7254.87C793.948 7258.95 797.338 7262.2699999999995 801.504 7262.2699999999995C805.671 7262.2699999999995 809.061 7258.95 809.061 7254.87C809.061 7250.78 805.671 7247.46 801.504 7247.46ZM801.504 7259.29C799.0120000000001 7259.29 796.993 7257.31 796.993 7254.87C796.993 7252.42 799.0120000000001 7250.44 801.504 7250.44C803.9970000000001 7250.44 806.016 7252.419999999999 806.016 7254.87C806.016 7257.3099999999995 803.997 7259.29 801.504 7259.29Z " fill="#000000" fill-opacity="1" transform="matrix(1,0,0,1,-784,-7237)"></path><path id="SvgjsPath1040" d="M801.5 7237.8C791.902 7237.8 784.12 7245.43 784.12 7254.84C784.12 7258.67 785.544 7262.16 787.591 7265.05L800.19 7284.45C800.378 7284.7699999999995 800.6850000000001 7285.0199999999995 801.0630000000001 7285.13C801.2080000000001 7285.18 801.3550000000001 7285.2 801.5000000000001 7285.2C801.5890000000002 7285.2 801.6760000000002 7285.19 801.7620000000001 7285.17C801.822 7285.16 801.8820000000001 7285.15 801.942 7285.13C802.307 7285.02 802.607 7284.79 802.795 7284.4800000000005L815.65796 7264.71467C815.65727 7264.71727 815.657 7264.72 815.657 7264.72C815.6576200000001 7264.72 815.6590100000001 7264.71615 815.6604600000001 7264.710840000001L815.6610000000001 7264.710000000001C815.6608900000001 7264.710000000001 815.66078 7264.710010000001 815.6606700000001 7264.710040000001C815.6614800000001 7264.706980000001 815.6623000000001 7264.703490000001 815.6630000000001 7264.700000000001C815.6640000000001 7264.700000000001 815.6640000000001 7264.700000000001 815.6650000000001 7264.700000000001C817.6870000000001 7261.920000000001 818.8800000000001 7258.52 818.8800000000001 7254.840000000001C818.8800000000001 7245.430000000001 811.0990000000002 7237.800000000001 801.5000000000001 7237.800000000001ZM814.007 7261.75H814.0039999999999L813.1119999999999 7263.11L801.5029999999998 7280.96L790.1419999999998 7263.46L790.0759999999998 7263.36C788.7379999999998 7261.469999999999 787.1429999999998 7258.46 787.1429999999998 7254.839999999999C787.1429999999998 7247.079999999999 793.5829999999999 7240.7699999999995 801.4999999999998 7240.7699999999995C809.4169999999998 7240.7699999999995 815.8579999999997 7247.08 815.8579999999997 7254.839999999999C815.8579999999997 7257.279999999999 815.2219999999998 7259.639999999999 814.0069999999997 7261.749999999999ZM801.504 7247.46C797.338 7247.46 793.948 7250.78 793.948 7254.87C793.948 7258.95 797.338 7262.2699999999995 801.504 7262.2699999999995C805.671 7262.2699999999995 809.061 7258.95 809.061 7254.87C809.061 7250.78 805.671 7247.46 801.504 7247.46ZM801.504 7259.29C799.0120000000001 7259.29 796.993 7257.31 796.993 7254.87C796.993 7252.42 799.0120000000001 7250.44 801.504 7250.44C803.9970000000001 7250.44 806.016 7252.419999999999 806.016 7254.87C806.016 7257.3099999999995 803.997 7259.29 801.504 7259.29Z " fill="#ffffff" fill-opacity="1" transform="matrix(1,0,0,1,-784,-7237)"></path></svg>