<svg id="SvgjsSvg1029" xmlns="http://www.w3.org/2000/svg" version="1.1" xmlns:xlink="http://www.w3.org/1999/xlink" xmlns:svgjs="http://svgjs.com/svgjs" width="45" height="45" viewBox="0 0 45 45"><title>video</title><desc>Created with Avocode.</desc><defs id="SvgjsDefs1030"></defs><path id="SvgjsPath1031" d="M786.853 5418.79C790.7189999999999 5418.79 793.853 5415.66 793.853 5411.79C793.853 5407.93 790.7189999999999 5404.79 786.853 5404.79C782.986 5404.79 779.853 5407.93 779.853 5411.79C779.853 5415.66 782.986 5418.79 786.853 5418.79ZM786.853 5407.59C789.169 5407.59 791.053 5409.4800000000005 791.053 5411.79C791.053 5414.11 789.169 5415.99 786.853 5415.99C784.5369999999999 5415.99 782.6529999999999 5414.11 782.6529999999999 5411.79C782.6529999999999 5409.48 784.5369999999999 5407.59 786.853 5407.59ZM805.75 5418.8C811.162 5418.8 815.55 5414.41 815.55 5409C815.55 5403.59 811.1619999999999 5399.2 805.75 5399.2C800.337 5399.2 795.95 5403.59 795.95 5409C795.95 5414.41 800.337 5418.8 805.75 5418.8ZM805.75 5402C809.61 5402 812.75 5405.14 812.75 5409C812.75 5412.86 809.61 5416 805.75 5416C801.89 5416 798.75 5412.86 798.75 5409C798.75 5405.14 801.89 5402 805.75 5402ZM821.15 5424.4C820.534 5424.4 819.9689999999999 5424.61 819.507 5424.94V5424.929999999999L814.15 5428.889999999999V5425.799999999999C814.15 5423.48 812.269 5421.599999999999 809.9499999999999 5421.599999999999H784.7499999999999C782.4309999999999 5421.599999999999 780.5499999999998 5423.48 780.5499999999998 5425.799999999999V5439.799999999999C780.5499999999998 5442.119999999999 782.4309999999998 5443.999999999999 784.7499999999999 5443.999999999999H809.9499999999999C812.2689999999999 5443.999999999999 814.15 5442.119999999999 814.15 5439.799999999999V5436.659999999999L819.5749999999999 5440.709999999999C820.0229999999999 5441.0199999999995 820.5659999999999 5441.199999999999 821.15 5441.199999999999C822.696 5441.199999999999 823.9499999999999 5439.949999999999 823.9499999999999 5438.399999999999V5427.199999999999C823.9499999999999 5425.649999999999 822.6959999999999 5424.399999999999 821.15 5424.399999999999ZM811.35 5439.8C811.35 5440.570000000001 810.722 5441.2 809.95 5441.2H784.75C783.978 5441.2 783.35 5440.57 783.35 5439.8V5425.8C783.35 5425.03 783.9780000000001 5424.400000000001 784.75 5424.400000000001H809.95C810.7220000000001 5424.400000000001 811.35 5425.030000000001 811.35 5425.8ZM815.827 5434.42L813.619 5432.77L815.8140000000001 5431.14L821.1500000000001 5427.200000000001L821.1540000000001 5438.400000000001Z " fill="#000000" fill-opacity="1" transform="matrix(1,0,0,1,-779,-5399)"></path><path id="SvgjsPath1032" d="M786.853 5418.79C790.7189999999999 5418.79 793.853 5415.66 793.853 5411.79C793.853 5407.93 790.7189999999999 5404.79 786.853 5404.79C782.986 5404.79 779.853 5407.93 779.853 5411.79C779.853 5415.66 782.986 5418.79 786.853 5418.79ZM786.853 5407.59C789.169 5407.59 791.053 5409.4800000000005 791.053 5411.79C791.053 5414.11 789.169 5415.99 786.853 5415.99C784.5369999999999 5415.99 782.6529999999999 5414.11 782.6529999999999 5411.79C782.6529999999999 5409.48 784.5369999999999 5407.59 786.853 5407.59ZM805.75 5418.8C811.162 5418.8 815.55 5414.41 815.55 5409C815.55 5403.59 811.1619999999999 5399.2 805.75 5399.2C800.337 5399.2 795.95 5403.59 795.95 5409C795.95 5414.41 800.337 5418.8 805.75 5418.8ZM805.75 5402C809.61 5402 812.75 5405.14 812.75 5409C812.75 5412.86 809.61 5416 805.75 5416C801.89 5416 798.75 5412.86 798.75 5409C798.75 5405.14 801.89 5402 805.75 5402ZM821.15 5424.4C820.534 5424.4 819.9689999999999 5424.61 819.507 5424.94V5424.929999999999L814.15 5428.889999999999V5425.799999999999C814.15 5423.48 812.269 5421.599999999999 809.9499999999999 5421.599999999999H784.7499999999999C782.4309999999999 5421.599999999999 780.5499999999998 5423.48 780.5499999999998 5425.799999999999V5439.799999999999C780.5499999999998 5442.119999999999 782.4309999999998 5443.999999999999 784.7499999999999 5443.999999999999H809.9499999999999C812.2689999999999 5443.999999999999 814.15 5442.119999999999 814.15 5439.799999999999V5436.659999999999L819.5749999999999 5440.709999999999C820.0229999999999 5441.0199999999995 820.5659999999999 5441.199999999999 821.15 5441.199999999999C822.696 5441.199999999999 823.9499999999999 5439.949999999999 823.9499999999999 5438.399999999999V5427.199999999999C823.9499999999999 5425.649999999999 822.6959999999999 5424.399999999999 821.15 5424.399999999999ZM811.35 5439.8C811.35 5440.570000000001 810.722 5441.2 809.95 5441.2H784.75C783.978 5441.2 783.35 5440.57 783.35 5439.8V5425.8C783.35 5425.03 783.9780000000001 5424.400000000001 784.75 5424.400000000001H809.95C810.7220000000001 5424.400000000001 811.35 5425.030000000001 811.35 5425.8ZM815.827 5434.42L813.619 5432.77L815.8140000000001 5431.14L821.1500000000001 5427.200000000001L821.1540000000001 5438.400000000001Z " fill="#ffffff" fill-opacity="1" transform="matrix(1,0,0,1,-779,-5399)"></path></svg>