<svg id="SvgjsSvg1017" xmlns="http://www.w3.org/2000/svg" version="1.1" xmlns:xlink="http://www.w3.org/1999/xlink" xmlns:svgjs="http://svgjs.com/svgjs" width="46" height="31" viewBox="0 0 46 31"><title>view</title><desc>Created with Avocode.</desc><defs id="SvgjsDefs1018"></defs><path id="SvgjsPath1019" d="M800.851 2211.3C795.826 2211.3 791.751 2215.3700000000003 791.751 2220.4C791.751 2225.42 795.826 2229.5 800.851 2229.5C805.877 2229.5 809.951 2225.42 809.951 2220.4C809.951 2215.37 805.8770000000001 2211.3 800.851 2211.3ZM800.851 2226.69C797.377 2226.69 794.551 2223.87 794.551 2220.4C794.551 2216.92 797.3770000000001 2214.1 800.851 2214.1C804.325 2214.1 807.151 2216.92 807.151 2220.4C807.151 2223.87 804.3249999999999 2226.69 800.851 2226.69ZM799.375 2215.72C797.812 2216.2 796.601 2217.43 796.135 2219C796.025 2219.37 796.236 2219.76 796.608 2219.87C796.674 2219.89 796.741 2219.9 796.8069999999999 2219.9C797.1089999999999 2219.9 797.3879999999999 2219.7000000000003 797.478 2219.39C797.81 2218.27 798.674 2217.4 799.79 2217.0499999999997C800.16 2216.9399999999996 800.366 2216.5499999999997 800.251 2216.18C800.136 2215.81 799.746 2215.6 799.375 2215.72ZM823.004 2219.6C822.616 2219.04 813.3430000000001 2205.7 800.851 2205.7C788.357 2205.7 779.084 2219.04 778.696 2219.6C778.37 2220.08 778.37 2220.71 778.696 2221.19C779.0840000000001 2221.75 788.357 2235.1 800.851 2235.1C813.343 2235.1 822.616 2221.75 823.004 2221.19C823.33 2220.71 823.33 2220.08 823.004 2219.6ZM800.851 2232.3C791.471 2232.3 783.731 2223.17 781.593 2220.4C783.731 2217.62 791.471 2208.5 800.851 2208.5C810.231 2208.5 817.972 2217.62 820.108 2220.4C817.9749999999999 2223.17 810.251 2232.3 800.851 2232.3Z " fill="#000000" fill-opacity="1" transform="matrix(1,0,0,1,-778,-2205)"></path><path id="SvgjsPath1020" d="M800.851 2211.3C795.826 2211.3 791.751 2215.3700000000003 791.751 2220.4C791.751 2225.42 795.826 2229.5 800.851 2229.5C805.877 2229.5 809.951 2225.42 809.951 2220.4C809.951 2215.37 805.8770000000001 2211.3 800.851 2211.3ZM800.851 2226.69C797.377 2226.69 794.551 2223.87 794.551 2220.4C794.551 2216.92 797.3770000000001 2214.1 800.851 2214.1C804.325 2214.1 807.151 2216.92 807.151 2220.4C807.151 2223.87 804.3249999999999 2226.69 800.851 2226.69ZM799.375 2215.72C797.812 2216.2 796.601 2217.43 796.135 2219C796.025 2219.37 796.236 2219.76 796.608 2219.87C796.674 2219.89 796.741 2219.9 796.8069999999999 2219.9C797.1089999999999 2219.9 797.3879999999999 2219.7000000000003 797.478 2219.39C797.81 2218.27 798.674 2217.4 799.79 2217.0499999999997C800.16 2216.9399999999996 800.366 2216.5499999999997 800.251 2216.18C800.136 2215.81 799.746 2215.6 799.375 2215.72ZM823.004 2219.6C822.616 2219.04 813.3430000000001 2205.7 800.851 2205.7C788.357 2205.7 779.084 2219.04 778.696 2219.6C778.37 2220.08 778.37 2220.71 778.696 2221.19C779.0840000000001 2221.75 788.357 2235.1 800.851 2235.1C813.343 2235.1 822.616 2221.75 823.004 2221.19C823.33 2220.71 823.33 2220.08 823.004 2219.6ZM800.851 2232.3C791.471 2232.3 783.731 2223.17 781.593 2220.4C783.731 2217.62 791.471 2208.5 800.851 2208.5C810.231 2208.5 817.972 2217.62 820.108 2220.4C817.9749999999999 2223.17 810.251 2232.3 800.851 2232.3Z " fill="#ffffff" fill-opacity="1" transform="matrix(1,0,0,1,-778,-2205)"></path></svg>