<svg id="SvgjsSvg1000" xmlns="http://www.w3.org/2000/svg" version="1.1" xmlns:xlink="http://www.w3.org/1999/xlink" xmlns:svgjs="http://svgjs.com/svgjs" width="77" height="86" viewBox="0 0 77 86"><title>Shape 1</title><desc>Created with Avocode.</desc><defs id="SvgjsDefs1001"></defs><path id="SvgjsPath1007" d="M838.65 812.743C838.65 817 835.682 822.2330000000001 832.053 824.3720000000001L807.097 839.0880000000001C803.4689999999999 841.2260000000001 797.5319999999999 841.2260000000001 793.904 839.0880000000001L768.947 824.3720000000001C765.319 822.2330000000001 762.35 817.0000000000001 762.35 812.743V783.234C762.35 778.9770000000001 765.3190000000001 773.744 768.947 771.605L793.904 756.889C797.532 754.75 803.469 754.75 807.097 756.889L832.053 771.605C835.682 773.744 838.65 778.977 838.65 783.234Z " fill="#05c3f9" fill-opacity="0" transform="matrix(1,0,0,1,-762,-755)"></path><path id="SvgjsPath1008" d="M838.65 812.743C838.65 817 835.682 822.2330000000001 832.053 824.3720000000001L807.097 839.0880000000001C803.4689999999999 841.2260000000001 797.5319999999999 841.2260000000001 793.904 839.0880000000001L768.947 824.3720000000001C765.319 822.2330000000001 762.35 817.0000000000001 762.35 812.743V783.234C762.35 778.9770000000001 765.3190000000001 773.744 768.947 771.605L793.904 756.889C797.532 754.75 803.469 754.75 807.097 756.889L832.053 771.605C835.682 773.744 838.65 778.977 838.65 783.234Z " fill="#500eac" fill-opacity="1" transform="matrix(1,0,0,1,-762,-755)"></path></svg>