<?xml version="1.0" encoding="UTF-8"?><!DOCTYPE svg PUBLIC "-//W3C//DTD SVG 1.1//EN" "http://www.w3.org/Graphics/SVG/1.1/DTD/svg11.dtd"><svg xmlns="http://www.w3.org/2000/svg"><symbol id="icon-facebook" viewBox="0 0 10 19">
    <title>
        facebook
    </title>
    <path d="M9.766.157v2.946H8.014c-.64 0-1.071.134-1.295.402-.223.268-.335.67-.335 1.205v2.11h3.27l-.435 3.303H6.384v8.471H2.97v-8.47H.123V6.82H2.97V4.387c0-1.384.387-2.457 1.161-3.22C4.904.404 5.934.023 7.222.023c1.093 0 1.941.045 2.544.134z" fill-rule="evenodd"/>
</symbol><symbol id="icon-flag" viewBox="0 0 46 46">
    <title>
        flag
    </title>
    <path d="M42.194 14.8L31.304 3.91 28.335.94l-5.903 5.91 4.462-4.46-4.48 4.48c-.348.34-.749.6-1.169.8l-.815-.81a4.2 4.2 0 0 0-5.94 0l-6.109 6.11-1.129 1.06-.857-.86a3.508 3.508 0 0 0-2.475-1.03 3.51 3.51 0 0 0-2.475 1.03 3.5 3.5 0 0 0 0 4.95l18.893 18.89 7.703 7.7a3.466 3.466 0 0 0 2.475 1.03c.895 0 1.792-.34 2.475-1.03a3.5 3.5 0 0 0 0-4.95l-8.973-8.97.998-.99 4.756-4.57 1.548-1.54a4.13 4.13 0 0 1 1.168-.81l.815.81a4.2 4.2 0 0 0 5.94 0l.019-.02 5.901-5.9zM31.216 42.24a.68.68 0 0 1-.206.49.69.69 0 0 1-.989 0l-7.704-7.7h.001L3.425 16.14a.689.689 0 0 1-.205-.5c0-.13.036-.32.206-.49a.69.69 0 0 1 .989 0l16.792 16.79 9.804 9.8c.169.17.205.37.205.5zM29.34 21.71l-1.548 1.54-4.757 4.56-.989 1-.99-1-10.89-10.88-.99-.99.99-.99 6.305-6.11a1.39 1.39 0 0 1 1.954-.02l3.989 3.98 1.06 1.06 6.952 6.96c-.384.25-.748.55-1.086.89zm7.942-.01l-.019.01a1.4 1.4 0 0 1-1.954.03l-3.989-3.99-1.06-1.06-6.953-6.96a6.698 6.698 0 0 0 1.057-.86l.049-.04 3.922-3.93.99.99 10.889 10.89.99.99zM24.364 8.87l-1.057.86 1.087-.89-.03.03z"/>
    <path d="M42.194 14.8L31.304 3.91 28.335.94l-5.903 5.91 4.462-4.46-4.48 4.48c-.348.34-.749.6-1.169.8l-.815-.81a4.2 4.2 0 0 0-5.94 0l-6.109 6.11-1.129 1.06-.857-.86a3.508 3.508 0 0 0-2.475-1.03 3.51 3.51 0 0 0-2.475 1.03 3.5 3.5 0 0 0 0 4.95l18.893 18.89 7.703 7.7a3.466 3.466 0 0 0 2.475 1.03c.895 0 1.792-.34 2.475-1.03a3.5 3.5 0 0 0 0-4.95l-8.973-8.97.998-.99 4.756-4.57 1.548-1.54a4.13 4.13 0 0 1 1.168-.81l.815.81a4.2 4.2 0 0 0 5.94 0l.019-.02 5.901-5.9zM31.216 42.24a.68.68 0 0 1-.206.49.69.69 0 0 1-.989 0l-7.704-7.7h.001L3.425 16.14a.689.689 0 0 1-.205-.5c0-.13.036-.32.206-.49a.69.69 0 0 1 .989 0l16.792 16.79 9.804 9.8c.169.17.205.37.205.5zM29.34 21.71l-1.548 1.54-4.757 4.56-.989 1-.99-1-10.89-10.88-.99-.99.99-.99 6.305-6.11a1.39 1.39 0 0 1 1.954-.02l3.989 3.98 1.06 1.06 6.952 6.96c-.384.25-.748.55-1.086.89zm7.942-.01l-.019.01a1.4 1.4 0 0 1-1.954.03l-3.989-3.99-1.06-1.06-6.953-6.96a6.698 6.698 0 0 0 1.057-.86l.049-.04 3.922-3.93.99.99 10.889 10.89.99.99zM24.364 8.87l-1.057.86 1.087-.89-.03.03z"/>
</symbol><symbol id="icon-like" viewBox="0 0 46 41">
    <title>
        like
    </title>
    <path d="M45.249 19.5c0-2.31-1.884-4.2-4.2-4.2H30.063c.212-1.64.488-4.3.488-7 0-5.29-2.905-7.7-5.602-7.7-3.5 0-3.5 3.71-3.5 8.4 0 3.38-5.261 8.59-7.982 10.91a4.242 4.242 0 0 0-1.816-.41h-7a4.2 4.2 0 0 0-4.2 4.2l1.4 12.6c.267 2.2 1.88 4.2 4.2 4.2h5.6a4.2 4.2 0 0 0 3.936-2.75l2.269 1.19c.199.1.423.16.649.16h18.692a3.858 3.858 0 0 0 3.852-3.85c0-.6-.14-1.16-.382-1.66a3.854 3.854 0 0 0 1.782-3.24c0-.64-.16-1.25-.438-1.78a4.19 4.19 0 0 0 1.838-3.47c0-.75-.2-1.45-.546-2.06a4.2 4.2 0 0 0 1.946-3.54zM11.651 37.7h-5.6c-.786 0-1.319-.9-1.417-1.71L3.255 23.58c.059-.71.662-1.28 1.396-1.28h7c.771 0 1.4.63 1.4 1.4v11.63c-.026.16-.026.31 0 .46v.51c0 .77-.629 1.4-1.4 1.4zm25.546-1.4H18.85l-2.999-1.57V23.7c0-.64-.147-1.25-.404-1.79 2.472-2.14 8.802-8.07 8.802-12.91 0-2.88 0-5.6.7-5.6 1.391 0 2.802 1.69 2.802 4.9 0 4.03-.676 8.13-.683 8.17-.069.41.046.82.311 1.14.267.31.658.49 1.07.49h12.6c.771 0 1.4.63 1.4 1.4 0 .78-.629 1.4-1.4 1.4h-1.556c-.774 0-1.4.63-1.4 1.4 0 .78.626 1.4 1.4 1.4h.156c.771 0 1.4.63 1.4 1.4 0 .78-.629 1.4-1.4 1.4h-1.555c-.774 0-1.4.63-1.4 1.4 0 .78.626 1.4 1.4 1.4h.558c.554.03.997.49.997 1.05 0 .58-.472 1.05-1.052 1.05h-1.4c-.772 0-1.4.62-1.4 1.4 0 .77.628 1.4 1.4 1.4.58 0 1.052.47 1.052 1.05 0 .58-.472 1.05-1.052 1.05z"/>
    <path d="M45.249 19.5c0-2.31-1.884-4.2-4.2-4.2H30.063c.212-1.64.488-4.3.488-7 0-5.29-2.905-7.7-5.602-7.7-3.5 0-3.5 3.71-3.5 8.4 0 3.38-5.261 8.59-7.982 10.91a4.242 4.242 0 0 0-1.816-.41h-7a4.2 4.2 0 0 0-4.2 4.2l1.4 12.6c.267 2.2 1.88 4.2 4.2 4.2h5.6a4.2 4.2 0 0 0 3.936-2.75l2.269 1.19c.199.1.423.16.649.16h18.692a3.858 3.858 0 0 0 3.852-3.85c0-.6-.14-1.16-.382-1.66a3.854 3.854 0 0 0 1.782-3.24c0-.64-.16-1.25-.438-1.78a4.19 4.19 0 0 0 1.838-3.47c0-.75-.2-1.45-.546-2.06a4.2 4.2 0 0 0 1.946-3.54zM11.651 37.7h-5.6c-.786 0-1.319-.9-1.417-1.71L3.255 23.58c.059-.71.662-1.28 1.396-1.28h7c.771 0 1.4.63 1.4 1.4v11.63c-.026.16-.026.31 0 .46v.51c0 .77-.629 1.4-1.4 1.4zm25.546-1.4H18.85l-2.999-1.57V23.7c0-.64-.147-1.25-.404-1.79 2.472-2.14 8.802-8.07 8.802-12.91 0-2.88 0-5.6.7-5.6 1.391 0 2.802 1.69 2.802 4.9 0 4.03-.676 8.13-.683 8.17-.069.41.046.82.311 1.14.267.31.658.49 1.07.49h12.6c.771 0 1.4.63 1.4 1.4 0 .78-.629 1.4-1.4 1.4h-1.556c-.774 0-1.4.63-1.4 1.4 0 .78.626 1.4 1.4 1.4h.156c.771 0 1.4.63 1.4 1.4 0 .78-.629 1.4-1.4 1.4h-1.555c-.774 0-1.4.63-1.4 1.4 0 .78.626 1.4 1.4 1.4h.558c.554.03.997.49.997 1.05 0 .58-.472 1.05-1.052 1.05h-1.4c-.772 0-1.4.62-1.4 1.4 0 .77.628 1.4 1.4 1.4.58 0 1.052.47 1.052 1.05 0 .58-.472 1.05-1.052 1.05z"/>
</symbol><symbol id="icon-message" viewBox="0 0 43 44">
    <title>
        message
    </title>
    <path d="M39.29.8H3.71C1.744.8.15 2.4.15 4.36v25.08C.15 31.4 1.744 33 3.71 33h4.247l10.089 10.09a1.39 1.39 0 0 0 1.526.3c.523-.22.864-.73.864-1.29V33H39.29c1.966 0 3.56-1.6 3.56-3.56V4.36C42.85 2.4 41.256.8 39.29.8zm.76 28.64a.76.76 0 0 1-.76.76H20.436c-1.546 0-2.8 1.25-2.8 2.8v5.72l-7.7-7.7a2.778 2.778 0 0 0-1.979-.82H3.71a.76.76 0 0 1-.76-.76V4.36c0-.42.341-.76.76-.76h35.58c.419 0 .76.34.76.76zM31.647 8.5H12.05c-.773 0-1.4.63-1.4 1.4 0 .78.627 1.4 1.4 1.4h19.597c.773 0 1.4-.62 1.4-1.4 0-.77-.627-1.4-1.4-1.4zm0 7H12.05c-.773 0-1.4.63-1.4 1.4 0 .78.627 1.4 1.4 1.4h19.597c.773 0 1.4-.62 1.4-1.4 0-.77-.627-1.4-1.4-1.4zm-8.4 7H12.05c-.773 0-1.4.63-1.4 1.4 0 .78.627 1.4 1.4 1.4h11.197c.773 0 1.4-.62 1.4-1.4 0-.77-.627-1.4-1.4-1.4z"/>
    <path d="M39.29.8H3.71C1.744.8.15 2.4.15 4.36v25.08C.15 31.4 1.744 33 3.71 33h4.247l10.089 10.09a1.39 1.39 0 0 0 1.526.3c.523-.22.864-.73.864-1.29V33H39.29c1.966 0 3.56-1.6 3.56-3.56V4.36C42.85 2.4 41.256.8 39.29.8zm.76 28.64a.76.76 0 0 1-.76.76H20.436c-1.546 0-2.8 1.25-2.8 2.8v5.72l-7.7-7.7a2.778 2.778 0 0 0-1.979-.82H3.71a.76.76 0 0 1-.76-.76V4.36c0-.42.341-.76.76-.76h35.58c.419 0 .76.34.76.76zM31.647 8.5H12.05c-.773 0-1.4.63-1.4 1.4 0 .78.627 1.4 1.4 1.4h19.597c.773 0 1.4-.62 1.4-1.4 0-.77-.627-1.4-1.4-1.4zm0 7H12.05c-.773 0-1.4.63-1.4 1.4 0 .78.627 1.4 1.4 1.4h19.597c.773 0 1.4-.62 1.4-1.4 0-.77-.627-1.4-1.4-1.4zm-8.4 7H12.05c-.773 0-1.4.63-1.4 1.4 0 .78.627 1.4 1.4 1.4h11.197c.773 0 1.4-.62 1.4-1.4 0-.77-.627-1.4-1.4-1.4z"/>
</symbol><symbol id="icon-mortarboard" viewBox="0 0 46 34">
    <title>
        mortarboard
    </title>
    <path d="M44.332 7.97l-21-7.7a1.336 1.336 0 0 0-.964 0l-21 7.7C.816 8.18.45 8.7.45 9.29c0 .58.366 1.11.918 1.31l1.182.44v17.35c-.417.24-.7.69-.7 1.2v2.81c0 .77.627 1.4 1.4 1.4.773 0 1.4-.63 1.4-1.4v-2.81c0-.51-.283-.96-.7-1.2V11.55l4.197 1.54v10.9c0 5.42 4.388 9.81 9.8 9.81h9.8c5.413 0 9.8-4.39 9.8-9.81v-10.9l6.785-2.49c.552-.2.918-.73.918-1.31 0-.59-.366-1.11-.918-1.32zm-9.585 16.02c0 3.86-3.14 7.01-7 7.01h-9.8c-3.859 0-7-3.15-7-7.01v-9.87l11.421 4.19c.156.05.319.08.482.08.163 0 .326-.03.482-.08l11.415-4.19zM22.85 15.5L5.917 9.29 22.85 3.07l16.933 6.22z"/>
    <path d="M44.332 7.97l-21-7.7a1.336 1.336 0 0 0-.964 0l-21 7.7C.816 8.18.45 8.7.45 9.29c0 .58.366 1.11.918 1.31l1.182.44v17.35c-.417.24-.7.69-.7 1.2v2.81c0 .77.627 1.4 1.4 1.4.773 0 1.4-.63 1.4-1.4v-2.81c0-.51-.283-.96-.7-1.2V11.55l4.197 1.54v10.9c0 5.42 4.388 9.81 9.8 9.81h9.8c5.413 0 9.8-4.39 9.8-9.81v-10.9l6.785-2.49c.552-.2.918-.73.918-1.31 0-.59-.366-1.11-.918-1.32zm-9.585 16.02c0 3.86-3.14 7.01-7 7.01h-9.8c-3.859 0-7-3.15-7-7.01v-9.87l11.421 4.19c.156.05.319.08.482.08.163 0 .326-.03.482-.08l11.415-4.19zM22.85 15.5L5.917 9.29 22.85 3.07l16.933 6.22z"/>
</symbol><symbol id="icon-pinmap" viewBox="0 0 35 49">
    <title>
        pinmap
    </title>
    <path d="M17.5.8C7.902.8.12 8.43.12 17.84c0 3.83 1.424 7.32 3.471 10.21l12.599 19.4c.188.32.495.57.873.68a1.331 1.331 0 0 0 .699.04c.06-.01.12-.02.18-.04.365-.11.665-.34.853-.65l12.863-19.765-.001.005.003-.01h.001l.002-.01h.002a16.695 16.695 0 0 0 3.215-9.86C34.88 8.43 27.099.8 17.5.8zm12.507 23.95h-.003l-.892 1.36-11.609 17.85-11.361-17.5-.066-.1c-1.338-1.89-2.933-4.9-2.933-8.52 0-7.76 6.44-14.07 14.357-14.07 7.917 0 14.358 6.31 14.358 14.07 0 2.44-.636 4.8-1.851 6.91zM17.504 10.46c-4.166 0-7.556 3.32-7.556 7.41 0 4.08 3.39 7.4 7.556 7.4 4.167 0 7.557-3.32 7.557-7.4 0-4.09-3.39-7.41-7.557-7.41zm0 11.83c-2.492 0-4.511-1.98-4.511-4.42 0-2.45 2.019-4.43 4.511-4.43 2.493 0 4.512 1.98 4.512 4.43 0 2.44-2.019 4.42-4.512 4.42z"/>
    <path d="M17.5.8C7.902.8.12 8.43.12 17.84c0 3.83 1.424 7.32 3.471 10.21l12.599 19.4c.188.32.495.57.873.68a1.331 1.331 0 0 0 .699.04c.06-.01.12-.02.18-.04.365-.11.665-.34.853-.65l12.863-19.765-.001.005.003-.01h.001l.002-.01h.002a16.695 16.695 0 0 0 3.215-9.86C34.88 8.43 27.099.8 17.5.8zm12.507 23.95h-.003l-.892 1.36-11.609 17.85-11.361-17.5-.066-.1c-1.338-1.89-2.933-4.9-2.933-8.52 0-7.76 6.44-14.07 14.357-14.07 7.917 0 14.358 6.31 14.358 14.07 0 2.44-.636 4.8-1.851 6.91zM17.504 10.46c-4.166 0-7.556 3.32-7.556 7.41 0 4.08 3.39 7.4 7.556 7.4 4.167 0 7.557-3.32 7.557-7.4 0-4.09-3.39-7.41-7.557-7.41zm0 11.83c-2.492 0-4.511-1.98-4.511-4.42 0-2.45 2.019-4.43 4.511-4.43 2.493 0 4.512 1.98 4.512 4.43 0 2.44-2.019 4.42-4.512 4.42z"/>
</symbol><symbol id="icon-star" viewBox="0 0 46 44">
    <title>
        star
    </title>
    <path d="M35.829 43.323a1.4 1.4 0 0 1-.684-.179L22.85 36.261l-12.295 6.883a1.4 1.4 0 0 1-2.057-1.494l2.746-13.82L.899 18.263a1.4 1.4 0 1 1 .786-2.418l13.992-1.659 5.902-12.794a1.401 1.401 0 0 1 2.543 0l5.901 12.794 13.992 1.659a1.4 1.4 0 0 1 .786 2.418L34.456 27.83l2.708 13.628a1.4 1.4 0 0 1-1.322 1.865h-.013zM22.85 33.258c.236 0 .472.059.684.178l10.33 5.782-2.307-11.611a1.4 1.4 0 0 1 .422-1.3l8.692-8.038-11.756-1.394a1.405 1.405 0 0 1-1.107-.804L22.85 5.321l-4.958 10.75a1.405 1.405 0 0 1-1.107.804L5.029 18.269l8.692 8.038a1.4 1.4 0 0 1 .422 1.3l-2.307 11.611 10.33-5.782c.212-.119.448-.178.684-.178z"/>
    <path d="M35.829 43.323a1.4 1.4 0 0 1-.684-.179L22.85 36.261l-12.295 6.883a1.4 1.4 0 0 1-2.057-1.494l2.746-13.82L.899 18.263a1.4 1.4 0 1 1 .786-2.418l13.992-1.659 5.902-12.794a1.401 1.401 0 0 1 2.543 0l5.901 12.794 13.992 1.659a1.4 1.4 0 0 1 .786 2.418L34.456 27.83l2.708 13.628a1.4 1.4 0 0 1-1.322 1.865h-.013zM22.85 33.258c.236 0 .472.059.684.178l10.33 5.782-2.307-11.611a1.4 1.4 0 0 1 .422-1.3l8.692-8.038-11.756-1.394a1.405 1.405 0 0 1-1.107-.804L22.85 5.321l-4.958 10.75a1.405 1.405 0 0 1-1.107.804L5.029 18.269l8.692 8.038a1.4 1.4 0 0 1 .422 1.3l-2.307 11.611 10.33-5.782c.212-.119.448-.178.684-.178z"/>
</symbol><symbol id="icon-title-bg" viewBox="0 0 77 86">
    <title>
        Shape 1
    </title>
    <path d="M76.65 57.743c0 4.257-2.968 9.49-6.597 11.629L45.097 84.088c-3.628 2.138-9.565 2.138-13.193 0L6.947 69.372C3.319 67.233.35 62 .35 57.743V28.234c0-4.257 2.969-9.49 6.597-11.629L31.904 1.889c3.628-2.139 9.565-2.139 13.193 0l24.956 14.716c3.629 2.139 6.597 7.372 6.597 11.629z"/>
    <path d="M76.65 57.743c0 4.257-2.968 9.49-6.597 11.629L45.097 84.088c-3.628 2.138-9.565 2.138-13.193 0L6.947 69.372C3.319 67.233.35 62 .35 57.743V28.234c0-4.257 2.969-9.49 6.597-11.629L31.904 1.889c3.628-2.139 9.565-2.139 13.193 0l24.956 14.716c3.629 2.139 6.597 7.372 6.597 11.629z"/>
</symbol><symbol id="icon-video" viewBox="0 0 45 45">
    <title>
        video
    </title>
    <path d="M7.853 19.79c3.866 0 7-3.13 7-7 0-3.86-3.134-7-7-7-3.867 0-7 3.14-7 7 0 3.87 3.133 7 7 7zm0-11.2c2.316 0 4.2 1.89 4.2 4.2 0 2.32-1.884 4.2-4.2 4.2-2.316 0-4.2-1.88-4.2-4.2 0-2.31 1.884-4.2 4.2-4.2zM26.75 19.8c5.412 0 9.8-4.39 9.8-9.8 0-5.41-4.388-9.8-9.8-9.8-5.413 0-9.8 4.39-9.8 9.8 0 5.41 4.387 9.8 9.8 9.8zm0-16.8c3.86 0 7 3.14 7 7s-3.14 7-7 7-7-3.14-7-7 3.14-7 7-7zm15.4 22.4c-.616 0-1.181.21-1.643.54v-.01l-5.357 3.96V26.8a4.2 4.2 0 0 0-4.2-4.2H5.75a4.2 4.2 0 0 0-4.2 4.2v14a4.2 4.2 0 0 0 4.2 4.2h25.2a4.2 4.2 0 0 0 4.2-4.2v-3.14l5.425 4.05c.448.31.991.49 1.575.49 1.546 0 2.8-1.25 2.8-2.8V28.2c0-1.55-1.254-2.8-2.8-2.8zm-9.8 15.4c0 .77-.628 1.4-1.4 1.4H5.75c-.772 0-1.4-.63-1.4-1.4v-14c0-.77.628-1.4 1.4-1.4h25.2c.772 0 1.4.63 1.4 1.4zm4.477-5.38l-2.208-1.65 2.195-1.63 5.336-3.94.004 11.2z"/>
    <path d="M7.853 19.79c3.866 0 7-3.13 7-7 0-3.86-3.134-7-7-7-3.867 0-7 3.14-7 7 0 3.87 3.133 7 7 7zm0-11.2c2.316 0 4.2 1.89 4.2 4.2 0 2.32-1.884 4.2-4.2 4.2-2.316 0-4.2-1.88-4.2-4.2 0-2.31 1.884-4.2 4.2-4.2zM26.75 19.8c5.412 0 9.8-4.39 9.8-9.8 0-5.41-4.388-9.8-9.8-9.8-5.413 0-9.8 4.39-9.8 9.8 0 5.41 4.387 9.8 9.8 9.8zm0-16.8c3.86 0 7 3.14 7 7s-3.14 7-7 7-7-3.14-7-7 3.14-7 7-7zm15.4 22.4c-.616 0-1.181.21-1.643.54v-.01l-5.357 3.96V26.8a4.2 4.2 0 0 0-4.2-4.2H5.75a4.2 4.2 0 0 0-4.2 4.2v14a4.2 4.2 0 0 0 4.2 4.2h25.2a4.2 4.2 0 0 0 4.2-4.2v-3.14l5.425 4.05c.448.31.991.49 1.575.49 1.546 0 2.8-1.25 2.8-2.8V28.2c0-1.55-1.254-2.8-2.8-2.8zm-9.8 15.4c0 .77-.628 1.4-1.4 1.4H5.75c-.772 0-1.4-.63-1.4-1.4v-14c0-.77.628-1.4 1.4-1.4h25.2c.772 0 1.4.63 1.4 1.4zm4.477-5.38l-2.208-1.65 2.195-1.63 5.336-3.94.004 11.2z"/>
</symbol><symbol id="icon-view" viewBox="0 0 46 31">
    <title>
        view
    </title>
    <path d="M22.851 6.3c-5.025 0-9.1 4.07-9.1 9.1 0 5.02 4.075 9.1 9.1 9.1 5.026 0 9.1-4.08 9.1-9.1 0-5.03-4.074-9.1-9.1-9.1zm0 15.39c-3.474 0-6.3-2.82-6.3-6.29 0-3.48 2.826-6.3 6.3-6.3 3.474 0 6.3 2.82 6.3 6.3 0 3.47-2.826 6.29-6.3 6.29zm-1.476-10.97a4.872 4.872 0 0 0-3.24 3.28.7.7 0 1 0 1.343.39 3.488 3.488 0 0 1 2.312-2.34.69.69 0 0 0 .461-.87.694.694 0 0 0-.876-.46zm23.629 3.88C44.616 14.04 35.343.7 22.851.7 10.357.7 1.084 14.04.696 14.6a1.415 1.415 0 0 0 0 1.59c.388.56 9.661 13.91 22.155 13.91 12.492 0 21.765-13.35 22.153-13.91.326-.48.326-1.11 0-1.59zM22.851 27.3c-9.38 0-17.12-9.13-19.258-11.9 2.138-2.78 9.878-11.9 19.258-11.9 9.38 0 17.121 9.12 19.257 11.9-2.133 2.77-9.857 11.9-19.257 11.9z"/>
    <path d="M22.851 6.3c-5.025 0-9.1 4.07-9.1 9.1 0 5.02 4.075 9.1 9.1 9.1 5.026 0 9.1-4.08 9.1-9.1 0-5.03-4.074-9.1-9.1-9.1zm0 15.39c-3.474 0-6.3-2.82-6.3-6.29 0-3.48 2.826-6.3 6.3-6.3 3.474 0 6.3 2.82 6.3 6.3 0 3.47-2.826 6.29-6.3 6.29zm-1.476-10.97a4.872 4.872 0 0 0-3.24 3.28.7.7 0 1 0 1.343.39 3.488 3.488 0 0 1 2.312-2.34.69.69 0 0 0 .461-.87.694.694 0 0 0-.876-.46zm23.629 3.88C44.616 14.04 35.343.7 22.851.7 10.357.7 1.084 14.04.696 14.6a1.415 1.415 0 0 0 0 1.59c.388.56 9.661 13.91 22.155 13.91 12.492 0 21.765-13.35 22.153-13.91.326-.48.326-1.11 0-1.59zM22.851 27.3c-9.38 0-17.12-9.13-19.258-11.9 2.138-2.78 9.878-11.9 19.258-11.9 9.38 0 17.121 9.12 19.257 11.9-2.133 2.77-9.857 11.9-19.257 11.9z"/>
</symbol></svg>