<svg id="SvgjsSvg1009" xmlns="http://www.w3.org/2000/svg" version="1.1" xmlns:xlink="http://www.w3.org/1999/xlink" xmlns:svgjs="http://svgjs.com/svgjs" width="46" height="44" viewBox="0 0 46 44"><title>star</title><desc>Created with Avocode.</desc><defs id="SvgjsDefs1010"></defs><path id="SvgjsPath1011" d="M813.829 818.323C813.593 818.323 813.358 818.263 813.145 818.144L800.85 811.261L788.5550000000001 818.144C788.0790000000001 818.4110000000001 787.4910000000001 818.377 787.0480000000001 818.056C786.6070000000001 817.735 786.3920000000002 817.186 786.4980000000002 816.6500000000001L789.2440000000001 802.83L778.8990000000001 793.263C778.4990000000001 792.892 778.3490000000002 792.322 778.5180000000001 791.802C778.6870000000001 791.283 779.1420000000002 790.909 779.6850000000002 790.845L793.6770000000001 789.186L799.5790000000002 776.392C799.8070000000001 775.8950000000001 800.3040000000002 775.5780000000001 800.8500000000001 775.5780000000001C801.3960000000002 775.5780000000001 801.8920000000002 775.8950000000001 802.1220000000002 776.392L808.0230000000001 789.186L822.0150000000001 790.845C822.5580000000001 790.909 823.0130000000001 791.283 823.1820000000001 791.802C823.3510000000001 792.322 823.2010000000001 792.892 822.8010000000002 793.263L812.4560000000001 802.83L815.1640000000001 816.4580000000001C815.2150000000001 816.6030000000001 815.2420000000001 816.7600000000001 815.2420000000001 816.9230000000001C815.2420000000001 817.6960000000001 814.6160000000001 818.3230000000001 813.8420000000001 818.3230000000001C813.8380000000001 818.3230000000001 813.8330000000001 818.3230000000001 813.8290000000001 818.3230000000001ZM800.85 808.258C801.086 808.258 801.322 808.317 801.534 808.436L811.864 814.2180000000001L809.557 802.6070000000001C809.462 802.1290000000001 809.623 801.6370000000001 809.979 801.3070000000001L818.671 793.2690000000001L806.9150000000001 791.8750000000001C806.4320000000001 791.8170000000001 806.013 791.5130000000001 805.8080000000001 791.0710000000001L800.8500000000001 780.3210000000001L795.8920000000002 791.0710000000001C795.6870000000001 791.5130000000001 795.2680000000001 791.8170000000001 794.7850000000002 791.8750000000001L783.0290000000002 793.2690000000001L791.7210000000002 801.3070000000001C792.0770000000002 801.6370000000002 792.2380000000003 802.1290000000001 792.1430000000003 802.6070000000001L789.8360000000002 814.2180000000001L800.1660000000003 808.436C800.3780000000003 808.317 800.6140000000003 808.258 800.8500000000003 808.258Z " fill="#000000" fill-opacity="1" transform="matrix(1,0,0,1,-778,-775)"></path><path id="SvgjsPath1012" d="M813.829 818.323C813.593 818.323 813.358 818.263 813.145 818.144L800.85 811.261L788.5550000000001 818.144C788.0790000000001 818.4110000000001 787.4910000000001 818.377 787.0480000000001 818.056C786.6070000000001 817.735 786.3920000000002 817.186 786.4980000000002 816.6500000000001L789.2440000000001 802.83L778.8990000000001 793.263C778.4990000000001 792.892 778.3490000000002 792.322 778.5180000000001 791.802C778.6870000000001 791.283 779.1420000000002 790.909 779.6850000000002 790.845L793.6770000000001 789.186L799.5790000000002 776.392C799.8070000000001 775.8950000000001 800.3040000000002 775.5780000000001 800.8500000000001 775.5780000000001C801.3960000000002 775.5780000000001 801.8920000000002 775.8950000000001 802.1220000000002 776.392L808.0230000000001 789.186L822.0150000000001 790.845C822.5580000000001 790.909 823.0130000000001 791.283 823.1820000000001 791.802C823.3510000000001 792.322 823.2010000000001 792.892 822.8010000000002 793.263L812.4560000000001 802.83L815.1640000000001 816.4580000000001C815.2150000000001 816.6030000000001 815.2420000000001 816.7600000000001 815.2420000000001 816.9230000000001C815.2420000000001 817.6960000000001 814.6160000000001 818.3230000000001 813.8420000000001 818.3230000000001C813.8380000000001 818.3230000000001 813.8330000000001 818.3230000000001 813.8290000000001 818.3230000000001ZM800.85 808.258C801.086 808.258 801.322 808.317 801.534 808.436L811.864 814.2180000000001L809.557 802.6070000000001C809.462 802.1290000000001 809.623 801.6370000000001 809.979 801.3070000000001L818.671 793.2690000000001L806.9150000000001 791.8750000000001C806.4320000000001 791.8170000000001 806.013 791.5130000000001 805.8080000000001 791.0710000000001L800.8500000000001 780.3210000000001L795.8920000000002 791.0710000000001C795.6870000000001 791.5130000000001 795.2680000000001 791.8170000000001 794.7850000000002 791.8750000000001L783.0290000000002 793.2690000000001L791.7210000000002 801.3070000000001C792.0770000000002 801.6370000000002 792.2380000000003 802.1290000000001 792.1430000000003 802.6070000000001L789.8360000000002 814.2180000000001L800.1660000000003 808.436C800.3780000000003 808.317 800.6140000000003 808.258 800.8500000000003 808.258Z " fill="#ffffff" fill-opacity="1" transform="matrix(1,0,0,1,-778,-775)"></path></svg>