<svg xmlns="http://www.w3.org/2000/svg" width="77" height="86" viewBox="0 0 77 86">
    <title>
        Shape 1
    </title>
    <path d="M76.65 57.743c0 4.257-2.968 9.49-6.597 11.629L45.097 84.088c-3.628 2.138-9.565 2.138-13.193 0L6.947 69.372C3.319 67.233.35 62 .35 57.743V28.234c0-4.257 2.969-9.49 6.597-11.629L31.904 1.889c3.628-2.139 9.565-2.139 13.193 0l24.956 14.716c3.629 2.139 6.597 7.372 6.597 11.629z" fill="none"/>
    <path d="M76.65 57.743c0 4.257-2.968 9.49-6.597 11.629L45.097 84.088c-3.628 2.138-9.565 2.138-13.193 0L6.947 69.372C3.319 67.233.35 62 .35 57.743V28.234c0-4.257 2.969-9.49 6.597-11.629L31.904 1.889c3.628-2.139 9.565-2.139 13.193 0l24.956 14.716c3.629 2.139 6.597 7.372 6.597 11.629z" fill="#500eac"/>
</svg>
